<svg width="1024" height="1024" viewBox="0 0 1024 1024" fill="none" xmlns="http://www.w3.org/2000/svg">
<rect width="1024" height="1024" rx="50" fill="#020617"/>
<path d="M159.44 306.963C181.584 284.731 231.817 265.631 258.648 246.61C276.193 234.171 298.091 222.902 318.265 233.609C382.952 267.936 445.402 321.359 509.218 355.167C476.88 376.391 398.039 419.367 378.396 444.416C418.191 469.552 473.247 506.765 513.073 528.881C514.847 586.999 513.916 648.221 513.837 706.598C489.172 702.785 439.115 666.447 416.354 651.648C419.778 738.14 411.674 733.643 340.801 776.965C302.403 805.203 291.709 790.833 253.916 769.18C228.924 754.861 177.848 734.886 160.334 714.27C153.002 696.515 151.19 328.877 159.44 306.963Z" fill="#0043BC"/>
<path d="M159.44 306.963C181.584 284.731 231.817 265.631 258.648 246.61C276.193 234.171 298.091 222.902 318.265 233.609C382.952 267.936 445.402 321.359 509.218 355.167C476.88 376.391 398.04 419.367 378.396 444.416C361.37 433.385 343.793 421.127 325.305 413.035C318.935 404.742 175.997 315.955 159.44 306.963Z" fill="#0466EC"/>
<path d="M325.305 413.034C343.793 421.126 361.37 433.384 378.396 444.414C418.191 469.551 473.247 506.763 513.073 528.879C514.848 586.998 513.916 648.22 513.837 706.596C489.172 702.783 439.115 666.445 416.355 651.647C388.65 634.168 348.486 610.402 323.335 591.049C321.961 588.397 318.18 579.854 318.282 577.085C319.54 543.101 308.696 436.041 325.305 413.034Z" fill="#0FA0FB"/>
<path d="M340.802 776.965L327.267 778.563C319.214 764.003 317.031 606.161 323.336 591.05C348.486 610.403 388.65 634.169 416.355 651.648C419.779 738.14 411.674 733.642 340.802 776.965Z" fill="#033696"/>
<path d="M522.29 351.552C581.4 314.581 638.502 270.253 699.141 234.733C722.327 221.152 744.006 233.989 764.609 249.463C790.038 268.566 847.282 289.489 866.377 310.966C871.612 338.36 871.422 691.009 864.177 713.909C848.02 734.803 800.836 753.302 776.44 766.388C749.808 780.676 723.014 808.073 694.301 785.667C616.554 737.35 604.952 749.281 607.981 651.44C586.623 664.518 532.581 703.681 513.837 706.597C513.916 648.22 514.848 586.998 513.073 528.88C560.805 500.098 608.242 470.824 655.375 441.068C624.482 421.465 546.209 374.136 522.29 351.552Z" fill="#0466EC"/>
<path d="M522.29 351.552C581.399 314.581 638.501 270.253 699.14 234.733C722.326 221.152 744.005 233.989 764.608 249.463C790.037 268.566 847.281 289.489 866.377 310.966C835.015 329.24 720.723 395.229 698.263 415.451C680.136 422.944 666.263 436.425 655.374 441.068C624.481 421.465 546.208 374.136 522.29 351.552Z" fill="#0FA0FB"/>
<path d="M698.264 415.451L702.357 421.255C709.718 432.783 706.51 485.092 706.056 501.375C706.703 529.564 707.203 557.032 705.505 585.216C690.336 602.68 629.943 637.834 607.981 651.44C586.623 664.518 532.581 703.681 513.837 706.597C513.916 648.221 514.848 586.999 513.073 528.88C560.805 500.098 608.242 470.824 655.375 441.068C666.264 436.425 680.136 422.944 698.264 415.451Z" fill="#6EC8FD"/>
<path d="M702.357 421.255C709.717 432.783 706.51 485.092 706.055 501.376L703.447 498.956C702.263 484.362 696.401 470.676 694.321 455.742C692.717 444.231 694.548 435.792 693.284 424.719L702.357 421.255Z" fill="#90D5FC"/>
<path d="M705.505 585.215C706.107 595.003 707.663 620.733 706.598 629.424C702.939 659.305 716.414 769.744 694.301 785.667C616.553 737.35 604.952 749.281 607.98 651.44C629.943 637.834 690.335 602.68 705.505 585.215Z" fill="#024DCA"/>
<path d="M509.219 355.167L522.291 351.552C546.209 374.136 624.482 421.465 655.375 441.068C608.242 470.824 560.806 500.098 513.074 528.88C473.247 506.765 418.192 469.552 378.397 444.416C398.04 419.367 476.881 376.391 509.219 355.167Z" fill="#0255E9"/>
</svg>
