<svg width="1024" height="1024" viewBox="0 0 1024 1024" fill="none" xmlns="http://www.w3.org/2000/svg">
<path d="M177.166 318.043C198.197 296.929 245.904 278.789 271.386 260.725C288.049 248.911 308.846 238.208 328.006 248.377C389.441 280.979 448.751 331.715 509.358 363.823C478.646 383.98 403.769 424.796 385.114 448.585C422.908 472.458 475.195 507.799 513.019 528.803C514.704 583.999 513.82 642.143 513.744 697.585C490.319 693.963 442.779 659.452 421.163 645.398C424.415 727.541 416.718 723.27 349.409 764.414C312.941 791.231 302.785 777.584 266.892 757.02C243.157 743.421 194.649 724.451 178.015 704.871C171.052 688.009 169.332 338.855 177.166 318.043Z" fill="#0043BC"/>
<path d="M177.166 318.043C198.197 296.929 245.904 278.789 271.386 260.725C288.05 248.911 308.846 238.208 328.006 248.377C389.441 280.979 448.751 331.715 509.358 363.823C478.646 383.98 403.769 424.796 385.114 448.585C368.943 438.109 352.25 426.467 334.692 418.782C328.642 410.906 192.891 326.583 177.166 318.043Z" fill="#0466EC"/>
<path d="M334.692 418.781C352.251 426.466 368.944 438.107 385.114 448.583C422.908 472.456 475.196 507.798 513.019 528.801C514.704 583.998 513.82 642.141 513.745 697.583C490.32 693.962 442.78 659.451 421.164 645.396C394.852 628.796 356.707 606.226 332.821 587.846C331.516 585.327 327.925 577.213 328.022 574.584C329.217 542.309 318.918 440.631 334.692 418.781Z" fill="#0FA0FB"/>
<path d="M349.409 764.413L336.555 765.932C328.907 752.104 326.834 602.198 332.821 587.847C356.707 606.226 394.852 628.797 421.164 645.397C424.415 727.54 416.719 723.269 349.409 764.413Z" fill="#033696"/>
<path d="M521.773 360.39C577.91 325.278 632.142 283.179 689.732 249.444C711.752 236.547 732.341 248.738 751.908 263.434C776.058 281.577 830.424 301.448 848.56 321.845C853.531 347.862 853.35 682.78 846.47 704.528C831.125 724.372 786.313 741.94 763.145 754.369C737.851 767.938 712.405 793.957 685.135 772.678C611.297 726.791 600.278 738.122 603.155 645.2C582.871 657.621 531.546 694.815 513.745 697.584C513.82 642.142 514.704 583.999 513.019 528.802C558.351 501.467 603.403 473.665 648.166 445.405C618.826 426.788 544.489 381.838 521.773 360.39Z" fill="#0466EC"/>
<path d="M521.772 360.39C577.909 325.278 632.141 283.179 689.731 249.444C711.751 236.547 732.34 248.738 751.907 263.434C776.057 281.577 830.423 301.448 848.559 321.845C818.774 339.2 710.228 401.871 688.898 421.076C671.682 428.193 658.507 440.996 648.165 445.405C618.825 426.788 544.488 381.838 521.772 360.39Z" fill="#0FA0FB"/>
<path d="M688.899 421.077L692.786 426.588C699.777 437.536 696.731 487.216 696.299 502.681C696.914 529.452 697.388 555.539 695.776 582.305C681.369 598.892 624.013 632.278 603.155 645.2C582.871 657.621 531.546 694.815 513.745 697.584C513.82 642.142 514.704 583.999 513.019 528.802C558.351 501.467 603.403 473.665 648.166 445.405C658.508 440.996 671.683 428.193 688.899 421.077Z" fill="#6EC8FD"/>
<path d="M692.786 426.588C699.776 437.537 696.73 487.216 696.298 502.681L693.821 500.383C692.697 486.523 687.13 473.525 685.153 459.341C683.63 448.409 685.369 440.395 684.169 429.878L692.786 426.588Z" fill="#90D5FC"/>
<path d="M695.776 582.305C696.347 591.6 697.825 616.037 696.814 624.291C693.339 652.67 706.136 757.556 685.135 772.678C611.296 726.791 600.278 738.122 603.155 645.2C624.013 632.278 681.369 598.892 695.776 582.305Z" fill="#024DCA"/>
<path d="M509.359 363.823L521.773 360.39C544.489 381.839 618.827 426.788 648.166 445.405C603.403 473.666 558.352 501.467 513.02 528.803C475.196 507.799 422.908 472.458 385.114 448.585C403.77 424.795 478.647 383.98 509.359 363.823Z" fill="#0255E9"/>
</svg>
