<svg width="922" height="276" viewBox="0 0 922 276" fill="none" xmlns="http://www.w3.org/2000/svg">
<rect width="922" height="276" rx="50" fill="#F3F4F6"/>
<path d="M66.54 80.0716C72.8091 73.7776 87.0302 68.3702 94.6262 62.9854C99.5935 59.4638 105.793 56.2734 111.504 59.3046C129.817 69.023 147.497 84.147 165.564 93.7182C156.409 99.7269 134.089 111.894 128.528 118.985C139.794 126.101 155.38 136.636 166.655 142.897C167.157 159.351 166.894 176.683 166.871 193.21C159.889 192.13 145.717 181.843 139.274 177.653C140.243 202.14 137.949 200.866 117.884 213.131C107.013 221.125 103.986 217.057 93.2865 210.927C86.2113 206.874 71.7515 201.219 66.7931 195.382C64.7173 190.356 64.2046 86.2756 66.54 80.0716Z" fill="#0043BC"/>
<path d="M66.54 80.0716C72.8092 73.7776 87.0303 68.3702 94.6263 62.9854C99.5935 59.4638 105.793 56.2734 111.504 59.3046C129.817 69.023 147.497 84.147 165.564 93.7182C156.409 99.7269 134.089 111.894 128.528 118.985C123.707 115.862 118.731 112.392 113.497 110.101C111.694 107.753 71.2276 82.6173 66.54 80.0716Z" fill="#0466EC"/>
<path d="M113.497 110.101C118.731 112.392 123.707 115.862 128.528 118.985C139.794 126.101 155.38 136.636 166.655 142.897C167.158 159.351 166.894 176.683 166.871 193.21C159.889 192.13 145.717 181.843 139.274 177.653C131.43 172.705 120.06 165.977 112.94 160.498C112.551 159.747 111.48 157.328 111.509 156.545C111.865 146.924 108.795 116.614 113.497 110.101Z" fill="#0FA0FB"/>
<path d="M117.884 213.131L114.053 213.584C111.773 209.462 111.155 164.776 112.94 160.498C120.06 165.977 131.431 172.705 139.274 177.653C140.243 202.14 137.949 200.866 117.884 213.131Z" fill="#033696"/>
<path d="M169.265 92.6949C185.999 82.2282 202.165 69.6788 219.332 59.6229C225.896 55.7782 232.033 59.4123 237.866 63.7932C245.065 69.2014 261.271 75.1248 266.677 81.205C268.159 88.9603 268.105 188.797 266.054 195.28C261.48 201.195 248.122 206.432 241.216 210.137C233.676 214.182 226.09 221.938 217.962 215.595C195.951 201.916 192.667 205.294 193.524 177.595C187.477 181.297 172.178 192.384 166.871 193.21C166.894 176.683 167.158 159.351 166.655 142.897C180.168 134.749 193.598 126.461 206.941 118.037C198.196 112.488 176.036 99.0886 169.265 92.6949Z" fill="#0466EC"/>
<path d="M169.265 92.6949C185.999 82.2282 202.165 69.6788 219.332 59.6229C225.896 55.7782 232.033 59.4123 237.866 63.7932C245.065 69.2014 261.271 75.1248 266.677 81.205C257.799 86.3784 225.442 105.06 219.083 110.785C213.951 112.906 210.024 116.723 206.941 118.037C198.195 112.488 176.036 99.0886 169.265 92.6949Z" fill="#0FA0FB"/>
<path d="M219.084 110.785L220.242 112.428C222.326 115.692 221.418 130.501 221.29 135.111C221.473 143.091 221.614 150.867 221.134 158.846C216.839 163.79 199.742 173.743 193.524 177.595C187.477 181.297 172.178 192.384 166.871 193.21C166.894 176.683 167.158 159.351 166.655 142.897C180.168 134.749 193.598 126.461 206.941 118.037C210.024 116.723 213.952 112.906 219.084 110.785Z" fill="#6EC8FD"/>
<path d="M220.242 112.428C222.326 115.692 221.418 130.501 221.289 135.111L220.551 134.426C220.216 130.294 218.556 126.42 217.967 122.191C217.513 118.933 218.031 116.544 217.674 113.409L220.242 112.428Z" fill="#90D5FC"/>
<path d="M221.133 158.846C221.304 161.617 221.744 168.901 221.443 171.362C220.407 179.821 224.222 211.087 217.962 215.595C195.951 201.916 192.666 205.294 193.524 177.595C199.742 173.743 216.839 163.791 221.133 158.846Z" fill="#024DCA"/>
<path d="M165.564 93.7182L169.265 92.6949C176.036 99.0886 198.196 112.488 206.942 118.037C193.598 126.461 180.168 134.749 166.655 142.897C155.38 136.636 139.794 126.101 128.528 118.985C134.089 111.894 156.409 99.7268 165.564 93.7182Z" fill="#0255E9"/>
<path d="M313.793 116H330.48L348.105 159H348.855L366.48 116H383.168V180H370.043V138.344H369.512L352.949 179.687H344.012L327.449 138.187H326.918V180H313.793V116ZM405.348 180H390.848L412.941 116H430.379L452.441 180H437.941L421.91 130.625H421.41L405.348 180ZM404.441 154.844H438.691V165.406H404.441V154.844ZM460.145 180V116H485.395C490.228 116 494.353 116.865 497.77 118.594C501.207 120.302 503.822 122.729 505.613 125.875C507.426 129 508.332 132.677 508.332 136.906C508.332 141.156 507.415 144.812 505.582 147.875C503.749 150.917 501.092 153.25 497.613 154.875C494.155 156.5 489.967 157.312 485.051 157.312H468.145V146.437H482.863C485.447 146.437 487.592 146.083 489.301 145.375C491.009 144.667 492.28 143.604 493.113 142.188C493.967 140.771 494.395 139.01 494.395 136.906C494.395 134.781 493.967 132.99 493.113 131.531C492.28 130.073 490.999 128.969 489.27 128.219C487.561 127.448 485.405 127.062 482.801 127.062H473.676V180H460.145ZM494.707 150.875L510.613 180H495.676L480.113 150.875H494.707ZM527.738 116L543.207 164.625H543.801L559.301 116H574.301L552.238 180H534.801L512.707 116H527.738ZM595.535 116V180H582.004V116H595.535ZM641.387 134.406C641.137 131.885 640.064 129.927 638.168 128.531C636.272 127.135 633.699 126.437 630.449 126.437C628.241 126.437 626.376 126.75 624.855 127.375C623.335 127.979 622.168 128.823 621.355 129.906C620.564 130.99 620.168 132.219 620.168 133.594C620.126 134.74 620.366 135.74 620.887 136.594C621.428 137.448 622.168 138.187 623.105 138.812C624.043 139.417 625.126 139.948 626.355 140.406C627.585 140.844 628.897 141.219 630.293 141.531L636.043 142.906C638.835 143.531 641.397 144.365 643.73 145.406C646.064 146.448 648.085 147.729 649.793 149.25C651.501 150.771 652.824 152.562 653.762 154.625C654.72 156.687 655.21 159.052 655.23 161.719C655.21 165.635 654.21 169.031 652.23 171.906C650.272 174.76 647.439 176.979 643.73 178.562C640.043 180.125 635.595 180.906 630.387 180.906C625.22 180.906 620.72 180.115 616.887 178.531C613.074 176.948 610.095 174.604 607.949 171.5C605.824 168.375 604.71 164.51 604.605 159.906H617.699C617.845 162.052 618.46 163.844 619.543 165.281C620.647 166.698 622.116 167.771 623.949 168.5C625.803 169.208 627.897 169.562 630.23 169.562C632.522 169.562 634.512 169.229 636.199 168.562C637.908 167.896 639.23 166.969 640.168 165.781C641.105 164.594 641.574 163.229 641.574 161.687C641.574 160.25 641.147 159.042 640.293 158.062C639.46 157.083 638.23 156.25 636.605 155.562C635.001 154.875 633.033 154.25 630.699 153.687L623.73 151.937C618.335 150.625 614.074 148.573 610.949 145.781C607.824 142.99 606.272 139.229 606.293 134.5C606.272 130.625 607.303 127.24 609.387 124.344C611.491 121.448 614.376 119.187 618.043 117.562C621.71 115.937 625.876 115.125 630.543 115.125C635.293 115.125 639.439 115.937 642.98 117.562C646.543 119.187 649.314 121.448 651.293 124.344C653.272 127.24 654.293 130.594 654.355 134.406H641.387Z" fill="#111827"/>
<path d="M667.715 180V116H673.559V174.75H704.059V180H667.715ZM729.465 181.094C726.569 181.094 723.923 180.531 721.527 179.406C719.132 178.26 717.225 176.615 715.809 174.469C714.392 172.302 713.684 169.677 713.684 166.594C713.684 164.219 714.132 162.219 715.027 160.594C715.923 158.969 717.194 157.635 718.84 156.594C720.486 155.552 722.434 154.729 724.684 154.125C726.934 153.521 729.413 153.052 732.121 152.719C734.809 152.385 737.079 152.094 738.934 151.844C740.809 151.594 742.236 151.198 743.215 150.656C744.194 150.115 744.684 149.24 744.684 148.031V146.906C744.684 143.635 743.704 141.062 741.746 139.187C739.809 137.292 737.017 136.344 733.371 136.344C729.913 136.344 727.09 137.104 724.902 138.625C722.736 140.146 721.215 141.937 720.34 144L715.059 142.094C716.142 139.469 717.642 137.375 719.559 135.812C721.475 134.229 723.621 133.094 725.996 132.406C728.371 131.698 730.777 131.344 733.215 131.344C735.048 131.344 736.954 131.583 738.934 132.063C740.934 132.542 742.788 133.375 744.496 134.562C746.204 135.729 747.59 137.365 748.652 139.469C749.715 141.552 750.246 144.198 750.246 147.406V180H744.684V172.406H744.34C743.673 173.823 742.684 175.198 741.371 176.531C740.059 177.865 738.413 178.958 736.434 179.812C734.454 180.667 732.132 181.094 729.465 181.094ZM730.215 176C733.173 176 735.736 175.344 737.902 174.031C740.069 172.719 741.736 170.979 742.902 168.812C744.09 166.625 744.684 164.219 744.684 161.594V154.656C744.267 155.052 743.569 155.406 742.59 155.719C741.632 156.031 740.517 156.312 739.246 156.562C737.996 156.792 736.746 156.99 735.496 157.156C734.246 157.323 733.121 157.469 732.121 157.594C729.413 157.927 727.1 158.448 725.184 159.156C723.267 159.865 721.798 160.844 720.777 162.094C719.757 163.323 719.246 164.906 719.246 166.844C719.246 169.76 720.288 172.021 722.371 173.625C724.454 175.208 727.069 176 730.215 176ZM766.199 180V116H771.793V141.156H772.293C772.918 139.719 773.814 138.24 774.98 136.719C776.168 135.198 777.72 133.927 779.637 132.906C781.574 131.865 784.012 131.344 786.949 131.344C790.887 131.344 794.345 132.385 797.324 134.469C800.303 136.531 802.626 139.427 804.293 143.156C805.96 146.865 806.793 151.188 806.793 156.125C806.793 161.083 805.96 165.427 804.293 169.156C802.647 172.885 800.335 175.792 797.355 177.875C794.397 179.958 790.96 181 787.043 181C784.126 181 781.689 180.479 779.73 179.437C777.793 178.396 776.23 177.115 775.043 175.594C773.855 174.052 772.939 172.552 772.293 171.094H771.605V180H766.199ZM771.699 156.031C771.699 159.906 772.272 163.344 773.418 166.344C774.585 169.323 776.251 171.667 778.418 173.375C780.605 175.062 783.251 175.906 786.355 175.906C789.543 175.906 792.241 175.031 794.449 173.281C796.658 171.51 798.335 169.125 799.48 166.125C800.626 163.125 801.199 159.76 801.199 156.031C801.199 152.344 800.626 149.021 799.48 146.063C798.355 143.104 796.689 140.76 794.48 139.031C792.272 137.281 789.564 136.406 786.355 136.406C783.23 136.406 780.574 137.25 778.387 138.937C776.22 140.604 774.564 142.917 773.418 145.875C772.272 148.812 771.699 152.198 771.699 156.031ZM851.262 142.531L846.168 143.969C845.668 142.531 844.96 141.229 844.043 140.062C843.126 138.896 841.928 137.969 840.449 137.281C838.991 136.594 837.178 136.25 835.012 136.25C831.762 136.25 829.095 137.021 827.012 138.562C824.928 140.104 823.887 142.094 823.887 144.531C823.887 146.594 824.595 148.271 826.012 149.562C827.449 150.833 829.658 151.844 832.637 152.594L839.887 154.375C843.908 155.354 846.918 156.906 848.918 159.031C850.939 161.156 851.949 163.823 851.949 167.031C851.949 169.74 851.199 172.146 849.699 174.25C848.199 176.354 846.105 178.01 843.418 179.219C840.751 180.406 837.658 181 834.137 181C829.449 181 825.585 179.948 822.543 177.844C819.501 175.719 817.553 172.656 816.699 168.656L822.043 167.344C822.73 170.198 824.074 172.354 826.074 173.812C828.095 175.271 830.751 176 834.043 176C837.73 176 840.678 175.177 842.887 173.531C845.095 171.865 846.199 169.781 846.199 167.281C846.199 165.344 845.553 163.719 844.262 162.406C842.97 161.073 841.012 160.094 838.387 159.469L830.543 157.594C826.376 156.594 823.293 155.01 821.293 152.844C819.293 150.677 818.293 147.99 818.293 144.781C818.293 142.135 819.012 139.812 820.449 137.812C821.887 135.792 823.866 134.208 826.387 133.062C828.908 131.917 831.783 131.344 835.012 131.344C839.408 131.344 842.918 132.344 845.543 134.344C848.189 136.323 850.095 139.052 851.262 142.531Z" fill="#111827"/>
</svg>
