<svg width="1024" height="1024" viewBox="0 0 1024 1024" fill="none" xmlns="http://www.w3.org/2000/svg">
<rect width="1024" height="1024" fill="#0F172A"/>
<path d="M565.54 177.065L609.421 162.901C624.132 158.122 643.008 149.342 657.736 157.043C668.499 162.672 671.46 171.946 675.469 182.456L699.098 232.969C700.951 236.929 707.834 252.497 709.731 255.174L759.431 255.193C791.017 255.237 827.071 252.852 835.894 296.43C839.964 316.522 835.409 340.896 837.011 361.45C836.5 396.217 837.981 432.818 837.08 467.25C837.046 468.662 836.994 470.073 836.942 471.485C848.501 472.756 856.978 476.252 859.645 488.838C860.519 497.237 860.155 508.631 860.138 517.406L860.112 564.161L860.104 606.597C860.138 630.901 863.212 649.214 837.401 661.301C836.137 691.624 837.539 722.751 837.055 752.935C836.57 782.816 841.886 815.285 817.105 837.434C806.585 846.837 787.761 855.66 773.596 855.409C759.465 863.574 746.477 868.881 729.87 869.159C703.488 869.591 677.062 869.401 650.679 869.392L495.856 869.34L344.8 869.349C307.456 869.332 258.699 874.068 225.052 858.249C200.13 846.568 180.964 825.346 171.877 799.371C161.508 770.321 164.367 723.938 164.345 692.126L164.397 559.858L164.411 419.493C164.439 396.125 164.273 372.709 164.696 349.351C165.028 331.037 179.286 324.849 194.082 319.86C195.263 316.986 196.609 314.183 198.113 311.464C208.539 292.564 223.75 290.988 242.802 284.625L294.88 267.321C336.346 253.674 383.703 236.298 424.954 224.186C471.67 208.051 518.533 192.343 565.54 177.065Z" fill="#F7F8F9"/>
<path d="M565.54 177.064L609.421 162.901C624.132 158.122 643.008 149.341 657.736 157.042C668.498 162.671 671.46 171.945 675.469 182.456L699.098 232.969C700.951 236.929 707.834 252.497 709.73 255.174C717.965 273.173 726.303 291.202 734.754 309.098C744.979 330.746 756.954 354.616 765.05 377.111C745.672 368.726 730.849 370.114 709.947 369.988L523.52 370.164C505.501 370.294 487.492 370.297 469.477 370.174C461.739 368.929 434.17 369.423 425.334 369.412L425.259 362.794C424.51 364.627 424.196 365.649 423.145 367.346C418.718 364.714 416.214 363.22 411.044 362.323C390.714 358.799 370.727 357.682 350.326 354C333.35 350.993 316.43 347.678 299.573 344.057C290.407 342.052 272.76 337.214 264.23 336.955L262.869 336.925C262.61 331.671 272.76 326.968 276.174 322.66C258.062 330.515 252.579 351.138 250.217 369.139C256.09 369.165 264.978 368.848 270.374 370.159C252.345 370.47 152.609 375.006 192.397 334.576C192.743 329.839 193.499 324.615 194.082 319.859C195.263 316.986 196.609 314.183 198.113 311.464C208.538 292.564 223.75 290.987 242.802 284.625L294.88 267.321C336.346 253.673 383.702 236.297 424.953 224.186C471.67 208.051 518.532 192.343 565.54 177.064Z" fill="#448AD7"/>
<path d="M565.54 177.064L609.421 162.901C624.132 158.122 643.008 149.341 657.736 157.042C668.499 162.671 671.46 171.945 675.469 182.456L699.098 232.969C700.951 236.929 707.834 252.497 709.731 255.174C717.965 273.173 726.303 291.202 734.754 309.098C744.98 330.746 756.954 354.616 765.05 377.111C745.672 368.726 730.849 370.114 709.947 369.988C712.354 368.477 723.827 369.189 727.472 369.254L727.914 368.724C723.065 367.392 720.138 369.203 715.411 368.122L714.9 364.86C709.012 359.716 693.496 319.922 688.041 309.112C683.876 299.003 666.845 260.951 660.983 254.162C651.424 254.724 642.731 256.831 632.903 256.208C612.27 254.898 611.24 231.444 597.265 222.26C587.108 215.577 564.761 225.496 553.782 228.384C537.893 233.189 522.221 239.079 506.238 243.563C504.515 242.712 505.666 242.9 503.605 242.675C489.648 241.147 434.03 229.417 424.954 224.186C471.67 208.051 518.533 192.343 565.54 177.064Z" fill="#5092DF"/>
<path d="M565.54 177.064L609.421 162.901C624.132 158.122 643.008 149.341 657.736 157.042C668.498 162.671 671.46 171.945 675.469 182.456C665.225 198.417 636.713 174.551 625.994 169.311C618.305 165.554 608.183 174.466 600.676 177.245C590.355 181.07 581.965 182.897 571.358 178.552C569.029 177.577 568.129 177.422 565.54 177.064Z" fill="#A0C1EC"/>
<path d="M194.082 319.859C195.263 316.985 196.609 314.182 198.113 311.464C208.538 292.564 223.75 290.987 242.802 284.625L294.88 267.321C336.346 253.673 383.702 236.297 424.953 224.186C434.03 229.417 489.648 241.147 503.605 242.674C505.666 242.899 504.514 242.711 506.237 243.563C453.978 260.687 401.884 278.324 349.966 296.468L301.539 313.305C296.298 315.134 280.198 320.493 276.174 322.66C258.062 330.515 252.579 351.138 250.217 369.138C256.09 369.164 264.978 368.847 270.374 370.158C252.345 370.47 152.609 375.005 192.397 334.576C192.743 329.839 193.499 324.614 194.082 319.859Z" fill="#2C5FB0"/>
<path d="M425.665 351.011C425.071 336.499 421.81 317.887 439.591 312.529C460.499 306.229 481.627 298.427 502.817 293.492C506.965 292.524 516.169 296.174 518.896 299.467C526.975 308.001 524.533 327.477 524.654 338.971L524.429 358.247C524.481 361.304 524.983 367.773 523.52 370.164C505.501 370.294 487.492 370.297 469.478 370.174C461.739 368.929 434.17 369.423 425.335 369.412L425.259 362.794C425.223 358.473 425.339 355.321 425.665 351.011Z" fill="#1D52AA"/>
<path d="M425.665 351.011C426.104 348.72 426.299 345.668 427.593 344.112C439.829 343.779 515.069 351.948 523.243 355.793L524.429 358.247C524.481 361.303 524.983 367.773 523.52 370.163C505.501 370.293 487.492 370.297 469.478 370.174C461.739 368.929 434.17 369.422 425.335 369.412L425.259 362.793C425.223 358.473 425.339 355.32 425.665 351.011Z" fill="#232E49"/>
<path d="M688.041 309.112C693.496 319.922 709.012 359.715 714.9 364.86L715.41 368.122C720.138 369.203 723.065 367.392 727.913 368.724L727.472 369.254C723.827 369.189 712.354 368.477 709.947 369.988L523.52 370.164C524.983 367.773 524.481 361.303 524.429 358.247L524.654 338.97C525.849 336.579 525.381 323.615 525.364 320.026C529.511 329.134 520.914 359.095 528.585 365.043C532.265 365.842 549.989 364.673 555.028 364.214C570.016 362.848 586.485 363.8 601.014 362.709C615.404 361.626 631.189 357.94 646.393 357.22C651.173 356.994 669.512 355.974 673.07 355.193C679.954 348.463 686.197 319.338 688.041 309.112Z" fill="#2861BA"/>
<path d="M709.73 255.174L759.431 255.193C791.017 255.237 827.071 252.852 835.894 296.43C839.964 316.522 835.409 340.896 837.011 361.45C836.5 396.217 837.981 432.818 837.08 467.25C837.046 468.662 836.994 470.073 836.942 471.485C836.31 487.311 838.535 493.739 823.504 502.069C816.378 503.783 812.36 504.341 805 504.926C805.035 495.61 804.879 485.517 805.096 476.247C806.1 432.949 807.122 400.706 765.05 377.112C756.954 354.616 744.979 330.746 734.754 309.098C726.303 291.202 717.965 273.174 709.73 255.174Z" fill="#3460A1"/>
<path d="M805.26 664.947C818.967 665.172 824.378 665.423 837.401 661.302C836.137 691.624 837.539 722.751 837.054 752.935C836.57 782.816 841.886 815.285 817.105 837.434C806.585 846.837 787.761 855.66 773.596 855.409C809.486 828.308 805.061 790.037 805.009 750.078L805.026 690.334L805.174 681.693L805.26 664.947Z" fill="#2A5AAD"/>
<path d="M588.606 558.992C588.684 562.291 587.247 567.269 587.099 572.179L587.489 572.412C588.511 565.962 588.892 552.818 589.983 549.086C590.208 563.182 590.26 577.287 590.147 591.383C590.113 600.769 589.472 619.082 591.541 627.507C593.827 636.425 598.511 644.547 605.101 650.971C619.318 664.652 631.578 664.496 649.822 664.894C701.184 666.037 754.045 662.998 805.26 664.946L805.174 681.692C795.008 681.64 784.826 682.298 774.661 681.926C756.14 681.242 635.942 673.466 631.024 675.795C629.691 676.427 629.024 676.679 627.535 676.895C624.504 674.878 625.491 676.185 624.193 673.068C617.716 670.791 619.82 675.64 612.114 669.085L613.75 673.717C611.326 673.466 611.612 670.012 609.04 668.011C608.997 667.985 604.295 666.427 604.027 666.228C594.901 659.24 588.225 643.361 583.402 633.074C582.562 631.265 584.675 623.896 582.787 621.099C582.441 620.589 581.454 616.865 581.402 616.519C578.64 600.293 579.541 573.079 588.606 558.992Z" fill="#A0C1EC"/>
<path d="M276.174 322.66C272.76 326.968 262.61 331.671 262.869 336.925L264.23 336.955C272.76 337.214 290.407 342.052 299.573 344.057C316.43 347.678 333.35 350.993 350.326 354C370.727 357.682 390.714 358.799 411.044 362.323C416.214 363.22 418.718 364.714 423.145 367.346C424.196 365.649 424.51 364.627 425.259 362.794L425.334 369.412C434.17 369.423 461.739 368.929 469.477 370.174C442.71 370.701 414.532 370.097 387.622 370.14C348.703 370.204 309.25 370.611 270.374 370.159C264.978 368.848 256.09 369.165 250.217 369.139C252.579 351.138 258.062 330.515 276.174 322.66Z" fill="#2756AE"/>
<path d="M805.026 690.334C795.58 690.663 794.757 688.004 784.289 690.1L783.778 689.26L787.406 687.814C786.038 687.745 785.943 687.597 784.61 688.039C769.596 692.966 764.565 679.588 748.945 688.429C726.459 687.762 702.622 685.606 679.859 684.879C666.776 684.463 639.137 684.584 627.751 682.567C619.413 681.13 611.465 677.978 604.408 673.319C574.242 653.336 571.09 610.337 575.203 577.53C576.155 569.962 581.194 553.433 585.42 547.294L586.753 547.095C588.251 549.953 588.121 555.451 588.606 558.992C579.541 573.079 578.64 600.293 581.402 616.519C581.454 616.866 582.441 620.589 582.788 621.1C584.675 623.897 582.562 631.265 583.402 633.075C588.225 643.361 594.901 659.241 604.027 666.228C604.295 666.427 608.997 667.986 609.04 668.012C611.612 670.012 611.326 673.467 613.751 673.718L612.114 669.085C619.82 675.64 617.716 670.791 624.193 673.068C625.492 676.186 624.504 674.878 627.535 676.895C629.024 676.679 629.691 676.428 631.024 675.796C635.942 673.467 756.14 681.242 774.661 681.926C784.826 682.298 795.009 681.64 805.174 681.692L805.026 690.334Z" fill="#CBDBF1"/>
<path d="M836.942 471.484C848.501 472.755 856.978 476.251 859.645 488.837L858.207 489.857C848.432 496.88 837.167 506.395 823.504 502.069C838.535 493.738 836.31 487.31 836.942 471.484Z" fill="#CBDBF1"/>
<path d="M663.658 556.248C677.183 545.537 696.336 545.65 709.731 556.533C723.125 567.408 727.16 586.128 719.454 601.566C712.7 615.065 698.405 623.074 683.365 621.784C668.334 620.494 655.615 610.156 651.268 595.705C646.921 581.253 651.831 565.616 663.658 556.248Z" fill="#4192DF"/>
<path d="M663.658 556.248C677.183 545.537 696.336 545.65 709.731 556.533C723.125 567.408 727.16 586.128 719.454 601.566C719.402 600.415 719.359 599.263 719.315 598.112C702.856 584.128 676.516 579.158 664.247 559.018C664.213 557.235 664.368 558.17 663.658 556.248Z" fill="#73BDEF"/>
</svg>
